<?xml version="1.0" standalone="no"?>
<!DOCTYPE svg PUBLIC "-//W3C//DTD SVG 20010904//EN"
 "http://www.w3.org/TR/2001/REC-SVG-20010904/DTD/svg10.dtd">
<svg version="1.0" xmlns="http://www.w3.org/2000/svg"
 width="300.000000pt" height="137.000000pt" viewBox="0 0 300.000000 137.000000"
 preserveAspectRatio="xMidYMid meet">
<metadata>
Created by potrace 1.10, written by Peter Selinger 2001-2011
</metadata>
<g transform="translate(0.000000,137.000000) scale(0.100000,-0.100000)"
fill="#FFFFFF" stroke="none">
<path d="M550 1170 c-13 -30 -28 -38 -45 -21 -6 6 -57 -19 -132 -63 -67 -40
-125 -75 -128 -78 -3 -3 4 -21 15 -41 l21 -35 -21 -7 c-19 -6 -20 -14 -20
-156 l0 -149 45 0 c40 0 45 -2 42 -22 -2 -18 19 -34 121 -95 68 -40 127 -73
131 -73 4 0 16 15 26 34 16 29 21 33 40 24 18 -8 41 2 136 57 63 36 118 71
124 76 6 6 2 21 -9 41 -18 29 -18 32 -2 43 14 10 16 35 16 165 l0 152 -40 -4
c-36 -3 -40 -1 -40 18 0 18 -24 36 -124 93 -68 39 -128 71 -133 71 -6 0 -16
-13 -23 -30z m187 -89 l63 -36 0 -131 c0 -129 -1 -132 -25 -148 -13 -9 -27
-16 -30 -16 -4 0 -5 59 -4 131 l2 130 -96 56 -96 55 16 24 16 24 46 -26 c25
-15 74 -43 108 -63z m-127 -23 c104 -60 109 -65 110 -95 0 -18 -2 -33 -4 -33
-3 0 -53 29 -113 64 l-108 64 -65 -35 c-36 -20 -78 -45 -94 -56 l-29 -20 -18
24 c-10 13 -17 24 -16 25 8 8 214 124 220 124 4 0 57 -28 117 -62z m-62 -64
c2 -1 -47 -30 -108 -64 l-110 -62 -1 -96 c-1 -54 -1 -105 0 -114 2 -14 -5 -18
-28 -18 l-31 0 0 129 0 129 112 65 c109 62 114 64 138 49 14 -9 26 -17 28 -18z
m342 -131 l0 -128 -112 -64 c-93 -53 -116 -62 -137 -55 -13 5 -26 14 -27 19
-2 6 45 37 104 70 l107 60 3 113 3 112 29 0 30 0 0 -127z m-187 43 c14 -9 17
-25 17 -91 l-1 -80 -71 -41 -72 -41 -68 39 -68 40 0 83 0 83 68 40 67 41 55
-31 c30 -17 63 -36 73 -42z m-196 -339 c51 -29 92 -55 93 -58 0 -3 -7 -14 -15
-25 -16 -21 -8 -25 -167 68 l-68 39 0 129 0 129 28 15 27 14 5 -130 5 -130 92
-51z m101 37 l53 -32 95 55 c91 53 96 55 109 37 8 -11 15 -22 15 -25 0 -4 -50
-34 -110 -69 l-110 -62 -110 64 c-105 60 -110 64 -110 96 l0 33 58 -32 c31
-18 81 -47 110 -65z"/>
<path d="M1017 923 c-4 -3 -7 -66 -7 -138 0 -105 3 -135 15 -145 28 -23 45 -4
45 49 0 53 17 81 50 81 10 0 25 3 34 6 14 5 16 -4 16 -64 0 -56 3 -71 17 -76
9 -4 21 -2 26 3 9 9 17 254 9 279 -2 6 -15 12 -28 12 -22 0 -24 -4 -24 -55 l0
-55 -38 0 c-21 0 -43 -5 -50 -12 -9 -9 -12 3 -12 55 0 64 -1 67 -23 67 -13 0
-27 -3 -30 -7z"/>
<path d="M1305 923 c-49 -12 -55 -28 -55 -160 l0 -123 91 0 c88 0 90 1 87 23
-3 19 -10 22 -61 25 l-58 3 3 32 c3 30 6 32 48 37 37 4 45 9 45 25 0 17 -7 20
-52 20 -51 -1 -52 0 -46 25 8 36 12 38 68 42 39 2 51 7 53 22 2 10 -2 22 -10
27 -14 9 -79 10 -113 2z"/>
<path d="M1456 915 c-9 -24 -7 -248 3 -263 5 -9 30 -12 87 -10 71 3 79 5 79
23 0 18 -7 20 -55 20 l-55 0 -5 120 c-5 113 -6 120 -26 123 -13 2 -24 -4 -28
-13z"/>
<path d="M1697 923 c-34 -9 -47 -56 -47 -166 0 -109 9 -134 44 -121 11 4 16
19 16 49 0 49 8 57 65 65 34 4 43 10 59 43 16 33 17 45 7 76 -15 52 -71 73
-144 54z m97 -67 c9 -35 -1 -53 -32 -61 -15 -3 -35 -8 -44 -11 -14 -4 -16 1
-12 33 9 60 11 63 48 63 27 0 35 -4 40 -24z"/>
<path d="M1895 905 c-24 -23 -25 -30 -25 -145 l0 -120 59 0 c76 0 106 12 126
49 21 41 20 154 -2 191 -32 55 -116 68 -158 25z m106 -42 c9 -10 14 -40 14
-79 0 -69 -11 -87 -57 -98 l-28 -6 0 93 c0 52 3 97 7 100 12 13 51 7 64 -10z"/>
<path d="M2155 923 c-49 -12 -55 -28 -55 -160 l0 -123 91 0 c88 0 90 1 87 23
-3 19 -10 22 -61 25 l-58 3 3 32 c3 30 6 32 48 37 37 4 45 9 45 25 0 17 -7 20
-52 20 -51 -1 -52 0 -46 25 8 36 12 38 68 42 39 2 51 7 53 22 2 10 -2 22 -10
27 -14 9 -79 10 -113 2z"/>
<path d="M2355 920 c-26 -10 -40 -28 -48 -59 -10 -42 9 -70 69 -97 46 -20 55
-28 52 -47 -3 -19 -10 -22 -58 -25 -61 -3 -79 -14 -61 -35 16 -20 73 -28 115
-16 91 25 88 144 -4 164 -74 16 -73 82 0 70 27 -5 40 -2 50 10 12 15 12 19 -5
31 -21 15 -78 18 -110 4z"/>
<path d="M2522 783 c3 -140 4 -148 23 -148 17 0 21 8 25 55 6 63 14 80 39 80
28 0 41 -21 41 -71 0 -50 16 -74 44 -63 24 9 22 104 -3 135 -17 22 -18 26 -4
52 8 16 13 45 11 65 -3 32 -6 37 -28 37 -22 0 -25 -5 -28 -43 -3 -36 -8 -46
-35 -62 l-32 -20 -5 63 c-4 55 -7 62 -28 65 l-23 3 3 -148z"/>
</g>
</svg>
